<mxfile host="app.diagrams.net" agent="Mozilla/5.0 (Windows NT 10.0; Win64; x64) AppleWebKit/537.36 (KHTML, like Gecko) Chrome/131.0.0.0 Safari/537.36" version="24.9.2">
  <diagram name="Page-1" id="kqgyd1lwkAWvsz2g3kPK">
    <mxGraphModel grid="1" page="1" gridSize="10" guides="1" tooltips="1" connect="1" arrows="1" fold="1" pageScale="1" pageWidth="850" pageHeight="1100" math="0" shadow="0">
      <root>
        <mxCell id="0" />
        <mxCell id="1" parent="0" />
        <mxCell id="3T2Dmv6GAxnCzhkbNNIt-1" value="&lt;font style=&quot;font-size: 10px;&quot;&gt;email&lt;/font&gt;" style="ellipse;whiteSpace=wrap;html=1;align=center;fontStyle=4;" vertex="1" parent="1">
          <mxGeometry x="-255" y="550" width="80" height="30" as="geometry" />
        </mxCell>
        <mxCell id="3T2Dmv6GAxnCzhkbNNIt-2" value="&lt;font style=&quot;font-size: 10px;&quot;&gt;username&lt;/font&gt;" style="ellipse;whiteSpace=wrap;html=1;align=center;" vertex="1" parent="1">
          <mxGeometry x="-205" y="520" width="80" height="30" as="geometry" />
        </mxCell>
        <mxCell id="3T2Dmv6GAxnCzhkbNNIt-3" value="&lt;font style=&quot;font-size: 10px;&quot;&gt;followers&lt;/font&gt;" style="ellipse;shape=doubleEllipse;margin=3;whiteSpace=wrap;html=1;align=center;" vertex="1" parent="1">
          <mxGeometry x="-275" y="590" width="80" height="30" as="geometry" />
        </mxCell>
        <mxCell id="3T2Dmv6GAxnCzhkbNNIt-4" value="&lt;font style=&quot;font-size: 10px;&quot;&gt;messages&lt;/font&gt;" style="ellipse;shape=doubleEllipse;margin=3;whiteSpace=wrap;html=1;align=center;" vertex="1" parent="1">
          <mxGeometry x="-275" y="630" width="80" height="30" as="geometry" />
        </mxCell>
        <mxCell id="3T2Dmv6GAxnCzhkbNNIt-5" style="edgeStyle=orthogonalEdgeStyle;rounded=0;orthogonalLoop=1;jettySize=auto;html=1;exitX=1;exitY=0.75;exitDx=0;exitDy=0;entryX=0;entryY=0.5;entryDx=0;entryDy=0;endArrow=none;endFill=0;" edge="1" parent="1" source="3T2Dmv6GAxnCzhkbNNIt-11" target="3T2Dmv6GAxnCzhkbNNIt-57">
          <mxGeometry relative="1" as="geometry" />
        </mxCell>
        <mxCell id="3T2Dmv6GAxnCzhkbNNIt-6" value="1" style="edgeLabel;html=1;align=center;verticalAlign=middle;resizable=0;points=[];" connectable="0" vertex="1" parent="3T2Dmv6GAxnCzhkbNNIt-5">
          <mxGeometry x="-0.3671" y="2" relative="1" as="geometry">
            <mxPoint x="-50" y="12" as="offset" />
          </mxGeometry>
        </mxCell>
        <mxCell id="3T2Dmv6GAxnCzhkbNNIt-7" style="edgeStyle=orthogonalEdgeStyle;rounded=0;orthogonalLoop=1;jettySize=auto;html=1;entryX=0;entryY=0.5;entryDx=0;entryDy=0;endArrow=none;endFill=0;exitX=1;exitY=0.5;exitDx=0;exitDy=0;" edge="1" parent="1" source="3T2Dmv6GAxnCzhkbNNIt-11" target="3T2Dmv6GAxnCzhkbNNIt-39">
          <mxGeometry relative="1" as="geometry">
            <mxPoint x="5" y="626" as="sourcePoint" />
            <Array as="points">
              <mxPoint x="135" y="626" />
              <mxPoint x="135" y="470" />
            </Array>
          </mxGeometry>
        </mxCell>
        <mxCell id="3T2Dmv6GAxnCzhkbNNIt-8" value="лю" style="edgeLabel;html=1;align=center;verticalAlign=middle;resizable=0;points=[];" connectable="0" vertex="1" parent="3T2Dmv6GAxnCzhkbNNIt-7">
          <mxGeometry x="0.8811" y="1" relative="1" as="geometry">
            <mxPoint x="2" y="11" as="offset" />
          </mxGeometry>
        </mxCell>
        <mxCell id="3T2Dmv6GAxnCzhkbNNIt-9" style="edgeStyle=orthogonalEdgeStyle;rounded=0;orthogonalLoop=1;jettySize=auto;html=1;entryX=0;entryY=0.5;entryDx=0;entryDy=0;exitX=1;exitY=0.25;exitDx=0;exitDy=0;endArrow=none;endFill=0;" edge="1" parent="1" source="3T2Dmv6GAxnCzhkbNNIt-11" target="3T2Dmv6GAxnCzhkbNNIt-63">
          <mxGeometry relative="1" as="geometry">
            <mxPoint x="-5" y="620" as="sourcePoint" />
            <Array as="points">
              <mxPoint x="115" y="616" />
              <mxPoint x="115" y="396" />
            </Array>
          </mxGeometry>
        </mxCell>
        <mxCell id="3T2Dmv6GAxnCzhkbNNIt-10" value="лю" style="edgeLabel;html=1;align=center;verticalAlign=middle;resizable=0;points=[];" connectable="0" vertex="1" parent="3T2Dmv6GAxnCzhkbNNIt-9">
          <mxGeometry x="0.886" y="3" relative="1" as="geometry">
            <mxPoint x="4" y="13" as="offset" />
          </mxGeometry>
        </mxCell>
        <mxCell id="3T2Dmv6GAxnCzhkbNNIt-11" value="User" style="whiteSpace=wrap;html=1;align=center;" vertex="1" parent="1">
          <mxGeometry x="-135" y="606" width="100" height="40" as="geometry" />
        </mxCell>
        <mxCell id="3T2Dmv6GAxnCzhkbNNIt-12" value="Subreddit" style="shape=ext;margin=3;double=1;whiteSpace=wrap;html=1;align=center;" vertex="1" parent="1">
          <mxGeometry x="795" y="210" width="100" height="40" as="geometry" />
        </mxCell>
        <mxCell id="3T2Dmv6GAxnCzhkbNNIt-13" style="edgeStyle=orthogonalEdgeStyle;rounded=0;orthogonalLoop=1;jettySize=auto;html=1;exitX=0.5;exitY=0;exitDx=0;exitDy=0;entryX=0.5;entryY=1;entryDx=0;entryDy=0;endArrow=none;endFill=0;" edge="1" parent="1" source="3T2Dmv6GAxnCzhkbNNIt-60" target="3T2Dmv6GAxnCzhkbNNIt-12">
          <mxGeometry relative="1" as="geometry" />
        </mxCell>
        <mxCell id="3T2Dmv6GAxnCzhkbNNIt-14" value="1" style="edgeLabel;html=1;align=center;verticalAlign=middle;resizable=0;points=[];" connectable="0" vertex="1" parent="3T2Dmv6GAxnCzhkbNNIt-13">
          <mxGeometry x="0.177" y="-1" relative="1" as="geometry">
            <mxPoint x="9" as="offset" />
          </mxGeometry>
        </mxCell>
        <mxCell id="3T2Dmv6GAxnCzhkbNNIt-15" value="Post" style="shape=ext;margin=3;double=1;whiteSpace=wrap;html=1;align=center;" vertex="1" parent="1">
          <mxGeometry x="795" y="426" width="100" height="40" as="geometry" />
        </mxCell>
        <mxCell id="3T2Dmv6GAxnCzhkbNNIt-16" style="edgeStyle=orthogonalEdgeStyle;rounded=0;orthogonalLoop=1;jettySize=auto;html=1;exitX=0.5;exitY=0;exitDx=0;exitDy=0;entryX=0.5;entryY=1;entryDx=0;entryDy=0;endArrow=none;endFill=0;" edge="1" parent="1" source="3T2Dmv6GAxnCzhkbNNIt-42" target="3T2Dmv6GAxnCzhkbNNIt-15">
          <mxGeometry relative="1" as="geometry" />
        </mxCell>
        <mxCell id="3T2Dmv6GAxnCzhkbNNIt-17" value="1" style="edgeLabel;html=1;align=center;verticalAlign=middle;resizable=0;points=[];" connectable="0" vertex="1" parent="3T2Dmv6GAxnCzhkbNNIt-16">
          <mxGeometry x="0.1557" y="-2" relative="1" as="geometry">
            <mxPoint x="8" y="-25" as="offset" />
          </mxGeometry>
        </mxCell>
        <mxCell id="3T2Dmv6GAxnCzhkbNNIt-18" value="Comment" style="shape=ext;margin=3;double=1;whiteSpace=wrap;html=1;align=center;" vertex="1" parent="1">
          <mxGeometry x="795" y="758" width="100" height="40" as="geometry" />
        </mxCell>
        <mxCell id="3T2Dmv6GAxnCzhkbNNIt-19" value="" style="endArrow=none;html=1;rounded=0;exitX=1;exitY=1;exitDx=0;exitDy=0;entryX=0.5;entryY=0;entryDx=0;entryDy=0;" edge="1" parent="1" source="3T2Dmv6GAxnCzhkbNNIt-2" target="3T2Dmv6GAxnCzhkbNNIt-11">
          <mxGeometry relative="1" as="geometry">
            <mxPoint x="-295" y="630" as="sourcePoint" />
            <mxPoint x="-135" y="630" as="targetPoint" />
          </mxGeometry>
        </mxCell>
        <mxCell id="3T2Dmv6GAxnCzhkbNNIt-20" value="" style="endArrow=none;html=1;rounded=0;exitX=1;exitY=1;exitDx=0;exitDy=0;entryX=0.36;entryY=0;entryDx=0;entryDy=0;entryPerimeter=0;" edge="1" parent="1" source="3T2Dmv6GAxnCzhkbNNIt-1" target="3T2Dmv6GAxnCzhkbNNIt-11">
          <mxGeometry relative="1" as="geometry">
            <mxPoint x="-315" y="690" as="sourcePoint" />
            <mxPoint x="-155" y="690" as="targetPoint" />
          </mxGeometry>
        </mxCell>
        <mxCell id="3T2Dmv6GAxnCzhkbNNIt-21" value="" style="endArrow=none;html=1;rounded=0;exitX=0.5;exitY=1;exitDx=0;exitDy=0;entryX=0.613;entryY=0.012;entryDx=0;entryDy=0;entryPerimeter=0;" edge="1" parent="1" source="3T2Dmv6GAxnCzhkbNNIt-98" target="3T2Dmv6GAxnCzhkbNNIt-11">
          <mxGeometry relative="1" as="geometry">
            <mxPoint x="-13.776058424696203" y="535.4189177054934" as="sourcePoint" />
            <mxPoint x="-185" y="730" as="targetPoint" />
          </mxGeometry>
        </mxCell>
        <mxCell id="3T2Dmv6GAxnCzhkbNNIt-22" value="" style="endArrow=none;html=1;rounded=0;exitX=1;exitY=0.5;exitDx=0;exitDy=0;entryX=0;entryY=0.75;entryDx=0;entryDy=0;" edge="1" parent="1" source="3T2Dmv6GAxnCzhkbNNIt-4" target="3T2Dmv6GAxnCzhkbNNIt-11">
          <mxGeometry relative="1" as="geometry">
            <mxPoint x="-455" y="710" as="sourcePoint" />
            <mxPoint x="-295" y="710" as="targetPoint" />
          </mxGeometry>
        </mxCell>
        <mxCell id="3T2Dmv6GAxnCzhkbNNIt-23" value="" style="endArrow=none;html=1;rounded=0;exitX=0;exitY=0.25;exitDx=0;exitDy=0;entryX=1;entryY=0.5;entryDx=0;entryDy=0;" edge="1" parent="1" source="3T2Dmv6GAxnCzhkbNNIt-11" target="3T2Dmv6GAxnCzhkbNNIt-3">
          <mxGeometry relative="1" as="geometry">
            <mxPoint x="-345" y="805" as="sourcePoint" />
            <mxPoint x="-185" y="805" as="targetPoint" />
          </mxGeometry>
        </mxCell>
        <mxCell id="3T2Dmv6GAxnCzhkbNNIt-24" value="&lt;font style=&quot;font-size: 10px;&quot;&gt;&lt;u&gt;title&lt;/u&gt;&lt;/font&gt;" style="ellipse;whiteSpace=wrap;html=1;align=center;" vertex="1" parent="1">
          <mxGeometry x="715" y="160" width="80" height="30" as="geometry" />
        </mxCell>
        <mxCell id="3T2Dmv6GAxnCzhkbNNIt-25" value="" style="endArrow=none;html=1;rounded=0;exitX=1;exitY=1;exitDx=0;exitDy=0;entryX=0.25;entryY=0;entryDx=0;entryDy=0;" edge="1" parent="1" source="3T2Dmv6GAxnCzhkbNNIt-24" target="3T2Dmv6GAxnCzhkbNNIt-12">
          <mxGeometry relative="1" as="geometry">
            <mxPoint x="605" y="420" as="sourcePoint" />
            <mxPoint x="765" y="420" as="targetPoint" />
          </mxGeometry>
        </mxCell>
        <mxCell id="3T2Dmv6GAxnCzhkbNNIt-26" value="&lt;font style=&quot;font-size: 10px;&quot;&gt;description&lt;/font&gt;" style="ellipse;whiteSpace=wrap;html=1;align=center;" vertex="1" parent="1">
          <mxGeometry x="895" y="160" width="80" height="30" as="geometry" />
        </mxCell>
        <mxCell id="3T2Dmv6GAxnCzhkbNNIt-27" value="" style="endArrow=none;html=1;rounded=0;exitX=0;exitY=1;exitDx=0;exitDy=0;entryX=0.75;entryY=0;entryDx=0;entryDy=0;" edge="1" parent="1" source="3T2Dmv6GAxnCzhkbNNIt-26" target="3T2Dmv6GAxnCzhkbNNIt-12">
          <mxGeometry relative="1" as="geometry">
            <mxPoint x="605" y="420" as="sourcePoint" />
            <mxPoint x="865" y="200" as="targetPoint" />
          </mxGeometry>
        </mxCell>
        <mxCell id="3T2Dmv6GAxnCzhkbNNIt-28" value="&lt;font style=&quot;font-size: 10px;&quot;&gt;rules&lt;/font&gt;" style="ellipse;whiteSpace=wrap;html=1;align=center;" vertex="1" parent="1">
          <mxGeometry x="805" y="130" width="80" height="30" as="geometry" />
        </mxCell>
        <mxCell id="3T2Dmv6GAxnCzhkbNNIt-29" value="" style="endArrow=none;html=1;rounded=0;exitX=0.5;exitY=1;exitDx=0;exitDy=0;entryX=0.5;entryY=0;entryDx=0;entryDy=0;" edge="1" parent="1" source="3T2Dmv6GAxnCzhkbNNIt-28" target="3T2Dmv6GAxnCzhkbNNIt-12">
          <mxGeometry relative="1" as="geometry">
            <mxPoint x="605" y="420" as="sourcePoint" />
            <mxPoint x="765" y="420" as="targetPoint" />
          </mxGeometry>
        </mxCell>
        <mxCell id="3T2Dmv6GAxnCzhkbNNIt-30" value="&lt;font style=&quot;font-size: 10px;&quot;&gt;topics&lt;/font&gt;" style="ellipse;shape=doubleEllipse;margin=3;whiteSpace=wrap;html=1;align=center;" vertex="1" parent="1">
          <mxGeometry x="935" y="215" width="80" height="30" as="geometry" />
        </mxCell>
        <mxCell id="3T2Dmv6GAxnCzhkbNNIt-31" value="" style="endArrow=none;html=1;rounded=0;exitX=0;exitY=0.5;exitDx=0;exitDy=0;entryX=1;entryY=0.5;entryDx=0;entryDy=0;" edge="1" parent="1" source="3T2Dmv6GAxnCzhkbNNIt-30" target="3T2Dmv6GAxnCzhkbNNIt-12">
          <mxGeometry relative="1" as="geometry">
            <mxPoint x="925" y="140" as="sourcePoint" />
            <mxPoint x="880" y="220" as="targetPoint" />
          </mxGeometry>
        </mxCell>
        <mxCell id="3T2Dmv6GAxnCzhkbNNIt-32" value="&lt;font style=&quot;font-size: 10px;&quot;&gt;topics&lt;/font&gt;" style="ellipse;shape=doubleEllipse;margin=3;whiteSpace=wrap;html=1;align=center;" vertex="1" parent="1">
          <mxGeometry x="935" y="431" width="80" height="30" as="geometry" />
        </mxCell>
        <mxCell id="3T2Dmv6GAxnCzhkbNNIt-33" value="&lt;font style=&quot;font-size: 10px;&quot;&gt;&lt;u&gt;title&lt;/u&gt;&lt;/font&gt;" style="ellipse;whiteSpace=wrap;html=1;align=center;" vertex="1" parent="1">
          <mxGeometry x="755" y="366" width="80" height="30" as="geometry" />
        </mxCell>
        <mxCell id="3T2Dmv6GAxnCzhkbNNIt-34" value="&lt;font style=&quot;font-size: 10px;&quot;&gt;text&lt;/font&gt;" style="ellipse;whiteSpace=wrap;html=1;align=center;" vertex="1" parent="1">
          <mxGeometry x="855" y="366" width="80" height="30" as="geometry" />
        </mxCell>
        <mxCell id="3T2Dmv6GAxnCzhkbNNIt-35" value="" style="endArrow=none;html=1;rounded=0;exitX=0.25;exitY=0;exitDx=0;exitDy=0;entryX=0.5;entryY=1;entryDx=0;entryDy=0;" edge="1" parent="1" source="3T2Dmv6GAxnCzhkbNNIt-15" target="3T2Dmv6GAxnCzhkbNNIt-33">
          <mxGeometry relative="1" as="geometry">
            <mxPoint x="355" y="340" as="sourcePoint" />
            <mxPoint x="785" y="410" as="targetPoint" />
          </mxGeometry>
        </mxCell>
        <mxCell id="3T2Dmv6GAxnCzhkbNNIt-36" value="" style="endArrow=none;html=1;rounded=0;exitX=0.5;exitY=1;exitDx=0;exitDy=0;entryX=0.75;entryY=0;entryDx=0;entryDy=0;" edge="1" parent="1" source="3T2Dmv6GAxnCzhkbNNIt-34" target="3T2Dmv6GAxnCzhkbNNIt-15">
          <mxGeometry relative="1" as="geometry">
            <mxPoint x="635" y="430" as="sourcePoint" />
            <mxPoint x="1005" y="460" as="targetPoint" />
          </mxGeometry>
        </mxCell>
        <mxCell id="3T2Dmv6GAxnCzhkbNNIt-37" style="edgeStyle=orthogonalEdgeStyle;rounded=0;orthogonalLoop=1;jettySize=auto;html=1;exitX=1;exitY=0.5;exitDx=0;exitDy=0;entryX=0;entryY=0.5;entryDx=0;entryDy=0;endArrow=none;endFill=0;" edge="1" parent="1" source="3T2Dmv6GAxnCzhkbNNIt-39" target="3T2Dmv6GAxnCzhkbNNIt-12">
          <mxGeometry relative="1" as="geometry">
            <Array as="points">
              <mxPoint x="385" y="470" />
              <mxPoint x="385" y="230" />
            </Array>
          </mxGeometry>
        </mxCell>
        <mxCell id="3T2Dmv6GAxnCzhkbNNIt-38" value="N" style="edgeLabel;html=1;align=center;verticalAlign=middle;resizable=0;points=[];" connectable="0" vertex="1" parent="3T2Dmv6GAxnCzhkbNNIt-37">
          <mxGeometry x="-0.9512" y="2" relative="1" as="geometry">
            <mxPoint y="12" as="offset" />
          </mxGeometry>
        </mxCell>
        <mxCell id="3T2Dmv6GAxnCzhkbNNIt-39" value="member" style="shape=associativeEntity;whiteSpace=wrap;html=1;align=center;" vertex="1" parent="1">
          <mxGeometry x="175" y="440" width="140" height="60" as="geometry" />
        </mxCell>
        <mxCell id="3T2Dmv6GAxnCzhkbNNIt-40" style="edgeStyle=orthogonalEdgeStyle;rounded=0;orthogonalLoop=1;jettySize=auto;html=1;exitX=0.5;exitY=1;exitDx=0;exitDy=0;entryX=0.5;entryY=0;entryDx=0;entryDy=0;endArrow=none;endFill=0;" edge="1" parent="1" source="3T2Dmv6GAxnCzhkbNNIt-42" target="3T2Dmv6GAxnCzhkbNNIt-18">
          <mxGeometry relative="1" as="geometry" />
        </mxCell>
        <mxCell id="3T2Dmv6GAxnCzhkbNNIt-41" value="M" style="edgeLabel;html=1;align=center;verticalAlign=middle;resizable=0;points=[];" connectable="0" vertex="1" parent="3T2Dmv6GAxnCzhkbNNIt-40">
          <mxGeometry x="-0.075" y="-1" relative="1" as="geometry">
            <mxPoint x="11" y="37" as="offset" />
          </mxGeometry>
        </mxCell>
        <mxCell id="3T2Dmv6GAxnCzhkbNNIt-42" value="has" style="shape=rhombus;perimeter=rhombusPerimeter;whiteSpace=wrap;html=1;align=center;" vertex="1" parent="1">
          <mxGeometry x="785" y="606" width="120" height="60" as="geometry" />
        </mxCell>
        <mxCell id="3T2Dmv6GAxnCzhkbNNIt-43" style="edgeStyle=orthogonalEdgeStyle;rounded=0;orthogonalLoop=1;jettySize=auto;html=1;exitX=1;exitY=0.5;exitDx=0;exitDy=0;entryX=0;entryY=0.75;entryDx=0;entryDy=0;endArrow=none;endFill=0;" edge="1" parent="1" source="3T2Dmv6GAxnCzhkbNNIt-57" target="3T2Dmv6GAxnCzhkbNNIt-15">
          <mxGeometry relative="1" as="geometry">
            <mxPoint x="605" y="636" as="sourcePoint" />
            <Array as="points">
              <mxPoint x="755" y="636" />
              <mxPoint x="755" y="456" />
            </Array>
          </mxGeometry>
        </mxCell>
        <mxCell id="3T2Dmv6GAxnCzhkbNNIt-44" value="лю" style="edgeLabel;html=1;align=center;verticalAlign=middle;resizable=0;points=[];" connectable="0" vertex="1" parent="3T2Dmv6GAxnCzhkbNNIt-43">
          <mxGeometry x="0.935" y="1" relative="1" as="geometry">
            <mxPoint x="12" y="11" as="offset" />
          </mxGeometry>
        </mxCell>
        <mxCell id="3T2Dmv6GAxnCzhkbNNIt-45" style="edgeStyle=orthogonalEdgeStyle;rounded=0;orthogonalLoop=1;jettySize=auto;html=1;exitX=1;exitY=0.5;exitDx=0;exitDy=0;entryX=0;entryY=0.75;entryDx=0;entryDy=0;endArrow=none;endFill=0;" edge="1" parent="1" source="3T2Dmv6GAxnCzhkbNNIt-57" target="3T2Dmv6GAxnCzhkbNNIt-12">
          <mxGeometry relative="1" as="geometry">
            <Array as="points">
              <mxPoint x="415" y="636" />
              <mxPoint x="415" y="240" />
            </Array>
          </mxGeometry>
        </mxCell>
        <mxCell id="3T2Dmv6GAxnCzhkbNNIt-46" value="лю" style="edgeLabel;html=1;align=center;verticalAlign=middle;resizable=0;points=[];" connectable="0" vertex="1" parent="3T2Dmv6GAxnCzhkbNNIt-45">
          <mxGeometry x="0.269" y="-1" relative="1" as="geometry">
            <mxPoint y="9" as="offset" />
          </mxGeometry>
        </mxCell>
        <mxCell id="3T2Dmv6GAxnCzhkbNNIt-47" style="edgeStyle=orthogonalEdgeStyle;rounded=0;orthogonalLoop=1;jettySize=auto;html=1;exitX=1;exitY=0.5;exitDx=0;exitDy=0;entryX=0;entryY=0.5;entryDx=0;entryDy=0;endArrow=none;endFill=0;" edge="1" parent="1" source="3T2Dmv6GAxnCzhkbNNIt-57" target="3T2Dmv6GAxnCzhkbNNIt-66">
          <mxGeometry relative="1" as="geometry">
            <Array as="points">
              <mxPoint x="415" y="636" />
              <mxPoint x="415" y="510" />
            </Array>
          </mxGeometry>
        </mxCell>
        <mxCell id="3T2Dmv6GAxnCzhkbNNIt-48" value="M" style="edgeLabel;html=1;align=center;verticalAlign=middle;resizable=0;points=[];" connectable="0" vertex="1" parent="3T2Dmv6GAxnCzhkbNNIt-47">
          <mxGeometry x="0.851" y="2" relative="1" as="geometry">
            <mxPoint x="3" y="12" as="offset" />
          </mxGeometry>
        </mxCell>
        <mxCell id="3T2Dmv6GAxnCzhkbNNIt-49" style="edgeStyle=orthogonalEdgeStyle;rounded=0;orthogonalLoop=1;jettySize=auto;html=1;exitX=1;exitY=0.5;exitDx=0;exitDy=0;entryX=0;entryY=0.5;entryDx=0;entryDy=0;endArrow=none;endFill=0;" edge="1" parent="1" source="3T2Dmv6GAxnCzhkbNNIt-57" target="3T2Dmv6GAxnCzhkbNNIt-72">
          <mxGeometry relative="1" as="geometry">
            <Array as="points">
              <mxPoint x="415" y="636" />
              <mxPoint x="415" y="386" />
            </Array>
          </mxGeometry>
        </mxCell>
        <mxCell id="3T2Dmv6GAxnCzhkbNNIt-50" value="лю" style="edgeLabel;html=1;align=center;verticalAlign=middle;resizable=0;points=[];" connectable="0" vertex="1" parent="3T2Dmv6GAxnCzhkbNNIt-49">
          <mxGeometry x="0.9261" y="-2" relative="1" as="geometry">
            <mxPoint y="8" as="offset" />
          </mxGeometry>
        </mxCell>
        <mxCell id="3T2Dmv6GAxnCzhkbNNIt-51" style="edgeStyle=orthogonalEdgeStyle;rounded=0;orthogonalLoop=1;jettySize=auto;html=1;exitX=1;exitY=0.5;exitDx=0;exitDy=0;entryX=0;entryY=0.5;entryDx=0;entryDy=0;endArrow=none;endFill=0;" edge="1" parent="1" source="3T2Dmv6GAxnCzhkbNNIt-57" target="3T2Dmv6GAxnCzhkbNNIt-75">
          <mxGeometry relative="1" as="geometry">
            <Array as="points">
              <mxPoint x="415" y="636" />
              <mxPoint x="415" y="730" />
            </Array>
          </mxGeometry>
        </mxCell>
        <mxCell id="3T2Dmv6GAxnCzhkbNNIt-52" value="M" style="edgeLabel;html=1;align=center;verticalAlign=middle;resizable=0;points=[];" connectable="0" vertex="1" parent="3T2Dmv6GAxnCzhkbNNIt-51">
          <mxGeometry x="0.8001" y="1" relative="1" as="geometry">
            <mxPoint y="17" as="offset" />
          </mxGeometry>
        </mxCell>
        <mxCell id="3T2Dmv6GAxnCzhkbNNIt-53" style="edgeStyle=orthogonalEdgeStyle;rounded=0;orthogonalLoop=1;jettySize=auto;html=1;exitX=1;exitY=0.5;exitDx=0;exitDy=0;entryX=0;entryY=0.5;entryDx=0;entryDy=0;endArrow=none;endFill=0;" edge="1" parent="1" source="3T2Dmv6GAxnCzhkbNNIt-57" target="3T2Dmv6GAxnCzhkbNNIt-69">
          <mxGeometry relative="1" as="geometry">
            <Array as="points">
              <mxPoint x="415" y="636" />
              <mxPoint x="415" y="828" />
            </Array>
          </mxGeometry>
        </mxCell>
        <mxCell id="3T2Dmv6GAxnCzhkbNNIt-54" value="M" style="edgeLabel;html=1;align=center;verticalAlign=middle;resizable=0;points=[];" connectable="0" vertex="1" parent="3T2Dmv6GAxnCzhkbNNIt-53">
          <mxGeometry x="0.8181" y="-3" relative="1" as="geometry">
            <mxPoint x="4" y="10" as="offset" />
          </mxGeometry>
        </mxCell>
        <mxCell id="3T2Dmv6GAxnCzhkbNNIt-55" style="edgeStyle=orthogonalEdgeStyle;rounded=0;orthogonalLoop=1;jettySize=auto;html=1;exitX=1;exitY=0.5;exitDx=0;exitDy=0;entryX=0;entryY=0.25;entryDx=0;entryDy=0;endArrow=none;endFill=0;" edge="1" parent="1" source="3T2Dmv6GAxnCzhkbNNIt-57" target="3T2Dmv6GAxnCzhkbNNIt-18">
          <mxGeometry relative="1" as="geometry">
            <Array as="points">
              <mxPoint x="755" y="636" />
              <mxPoint x="755" y="768" />
            </Array>
          </mxGeometry>
        </mxCell>
        <mxCell id="3T2Dmv6GAxnCzhkbNNIt-56" value="лю" style="edgeLabel;html=1;align=center;verticalAlign=middle;resizable=0;points=[];" connectable="0" vertex="1" parent="3T2Dmv6GAxnCzhkbNNIt-55">
          <mxGeometry x="0.9566" y="2" relative="1" as="geometry">
            <mxPoint x="4" y="-8" as="offset" />
          </mxGeometry>
        </mxCell>
        <mxCell id="3T2Dmv6GAxnCzhkbNNIt-57" value="creates" style="shape=rhombus;perimeter=rhombusPerimeter;whiteSpace=wrap;html=1;align=center;" vertex="1" parent="1">
          <mxGeometry x="185" y="606" width="120" height="60" as="geometry" />
        </mxCell>
        <mxCell id="3T2Dmv6GAxnCzhkbNNIt-58" style="edgeStyle=orthogonalEdgeStyle;rounded=0;orthogonalLoop=1;jettySize=auto;html=1;exitX=0.5;exitY=1;exitDx=0;exitDy=0;entryX=0.5;entryY=0;entryDx=0;entryDy=0;endArrow=none;endFill=0;" edge="1" parent="1" source="3T2Dmv6GAxnCzhkbNNIt-60" target="3T2Dmv6GAxnCzhkbNNIt-15">
          <mxGeometry relative="1" as="geometry" />
        </mxCell>
        <mxCell id="3T2Dmv6GAxnCzhkbNNIt-59" value="M" style="edgeLabel;html=1;align=center;verticalAlign=middle;resizable=0;points=[];" connectable="0" vertex="1" parent="3T2Dmv6GAxnCzhkbNNIt-58">
          <mxGeometry x="-0.5766" y="1" relative="1" as="geometry">
            <mxPoint x="9" y="2" as="offset" />
          </mxGeometry>
        </mxCell>
        <mxCell id="3T2Dmv6GAxnCzhkbNNIt-60" value="has" style="shape=rhombus;perimeter=rhombusPerimeter;whiteSpace=wrap;html=1;align=center;" vertex="1" parent="1">
          <mxGeometry x="785" y="280" width="120" height="60" as="geometry" />
        </mxCell>
        <mxCell id="3T2Dmv6GAxnCzhkbNNIt-61" style="edgeStyle=orthogonalEdgeStyle;rounded=0;orthogonalLoop=1;jettySize=auto;html=1;exitX=1;exitY=0.5;exitDx=0;exitDy=0;entryX=0;entryY=0.25;entryDx=0;entryDy=0;endArrow=none;endFill=0;" edge="1" parent="1" source="3T2Dmv6GAxnCzhkbNNIt-63" target="3T2Dmv6GAxnCzhkbNNIt-12">
          <mxGeometry relative="1" as="geometry">
            <Array as="points">
              <mxPoint x="355" y="396" />
              <mxPoint x="355" y="220" />
            </Array>
          </mxGeometry>
        </mxCell>
        <mxCell id="3T2Dmv6GAxnCzhkbNNIt-62" value="N" style="edgeLabel;html=1;align=center;verticalAlign=middle;resizable=0;points=[];" connectable="0" vertex="1" parent="3T2Dmv6GAxnCzhkbNNIt-61">
          <mxGeometry x="-0.9107" y="-2" relative="1" as="geometry">
            <mxPoint x="-9" y="8" as="offset" />
          </mxGeometry>
        </mxCell>
        <mxCell id="3T2Dmv6GAxnCzhkbNNIt-63" value="moderator" style="shape=associativeEntity;whiteSpace=wrap;html=1;align=center;" vertex="1" parent="1">
          <mxGeometry x="175" y="366" width="140" height="60" as="geometry" />
        </mxCell>
        <mxCell id="3T2Dmv6GAxnCzhkbNNIt-64" style="edgeStyle=orthogonalEdgeStyle;rounded=0;orthogonalLoop=1;jettySize=auto;html=1;exitX=1;exitY=0.5;exitDx=0;exitDy=0;entryX=0;entryY=0.5;entryDx=0;entryDy=0;endArrow=none;endFill=0;" edge="1" parent="1" source="3T2Dmv6GAxnCzhkbNNIt-66" target="3T2Dmv6GAxnCzhkbNNIt-85">
          <mxGeometry relative="1" as="geometry">
            <Array as="points">
              <mxPoint x="615" y="510" />
              <mxPoint x="615" y="446" />
            </Array>
          </mxGeometry>
        </mxCell>
        <mxCell id="3T2Dmv6GAxnCzhkbNNIt-65" value="M" style="edgeLabel;html=1;align=center;verticalAlign=middle;resizable=0;points=[];" connectable="0" vertex="1" parent="3T2Dmv6GAxnCzhkbNNIt-64">
          <mxGeometry x="-0.686" y="1" relative="1" as="geometry">
            <mxPoint x="-8" y="11" as="offset" />
          </mxGeometry>
        </mxCell>
        <mxCell id="3T2Dmv6GAxnCzhkbNNIt-66" value="Post Vote" style="shape=ext;margin=3;double=1;whiteSpace=wrap;html=1;align=center;" vertex="1" parent="1">
          <mxGeometry x="485" y="490" width="100" height="40" as="geometry" />
        </mxCell>
        <mxCell id="3T2Dmv6GAxnCzhkbNNIt-67" style="edgeStyle=orthogonalEdgeStyle;rounded=0;orthogonalLoop=1;jettySize=auto;html=1;exitX=1;exitY=0.5;exitDx=0;exitDy=0;endArrow=none;endFill=0;" edge="1" parent="1" source="3T2Dmv6GAxnCzhkbNNIt-69" target="3T2Dmv6GAxnCzhkbNNIt-78">
          <mxGeometry relative="1" as="geometry">
            <Array as="points">
              <mxPoint x="615" y="828" />
              <mxPoint x="615" y="778" />
            </Array>
          </mxGeometry>
        </mxCell>
        <mxCell id="3T2Dmv6GAxnCzhkbNNIt-68" value="M" style="edgeLabel;html=1;align=center;verticalAlign=middle;resizable=0;points=[];" connectable="0" vertex="1" parent="3T2Dmv6GAxnCzhkbNNIt-67">
          <mxGeometry x="-0.8076" y="3" relative="1" as="geometry">
            <mxPoint y="13" as="offset" />
          </mxGeometry>
        </mxCell>
        <mxCell id="3T2Dmv6GAxnCzhkbNNIt-69" value="Comment Vote" style="shape=ext;margin=3;double=1;whiteSpace=wrap;html=1;align=center;" vertex="1" parent="1">
          <mxGeometry x="485" y="808" width="100" height="40" as="geometry" />
        </mxCell>
        <mxCell id="3T2Dmv6GAxnCzhkbNNIt-70" style="edgeStyle=orthogonalEdgeStyle;rounded=0;orthogonalLoop=1;jettySize=auto;html=1;exitX=1;exitY=0.5;exitDx=0;exitDy=0;entryX=0;entryY=0.5;entryDx=0;entryDy=0;endArrow=none;endFill=0;" edge="1" parent="1" source="3T2Dmv6GAxnCzhkbNNIt-72" target="3T2Dmv6GAxnCzhkbNNIt-85">
          <mxGeometry relative="1" as="geometry">
            <Array as="points">
              <mxPoint x="615" y="386" />
              <mxPoint x="615" y="446" />
            </Array>
          </mxGeometry>
        </mxCell>
        <mxCell id="3T2Dmv6GAxnCzhkbNNIt-71" value="M" style="edgeLabel;html=1;align=center;verticalAlign=middle;resizable=0;points=[];" connectable="0" vertex="1" parent="3T2Dmv6GAxnCzhkbNNIt-70">
          <mxGeometry x="-0.7875" y="2" relative="1" as="geometry">
            <mxPoint y="12" as="offset" />
          </mxGeometry>
        </mxCell>
        <mxCell id="3T2Dmv6GAxnCzhkbNNIt-72" value="Post Award" style="shape=ext;margin=3;double=1;whiteSpace=wrap;html=1;align=center;" vertex="1" parent="1">
          <mxGeometry x="485" y="366" width="100" height="40" as="geometry" />
        </mxCell>
        <mxCell id="3T2Dmv6GAxnCzhkbNNIt-73" style="edgeStyle=orthogonalEdgeStyle;rounded=0;orthogonalLoop=1;jettySize=auto;html=1;exitX=1;exitY=0.5;exitDx=0;exitDy=0;entryX=0;entryY=0.5;entryDx=0;entryDy=0;endArrow=none;endFill=0;" edge="1" parent="1" source="3T2Dmv6GAxnCzhkbNNIt-75" target="3T2Dmv6GAxnCzhkbNNIt-78">
          <mxGeometry relative="1" as="geometry">
            <Array as="points">
              <mxPoint x="615" y="728" />
              <mxPoint x="615" y="778" />
            </Array>
          </mxGeometry>
        </mxCell>
        <mxCell id="3T2Dmv6GAxnCzhkbNNIt-74" value="M" style="edgeLabel;html=1;align=center;verticalAlign=middle;resizable=0;points=[];" connectable="0" vertex="1" parent="3T2Dmv6GAxnCzhkbNNIt-73">
          <mxGeometry x="-0.7938" y="2" relative="1" as="geometry">
            <mxPoint y="19" as="offset" />
          </mxGeometry>
        </mxCell>
        <mxCell id="3T2Dmv6GAxnCzhkbNNIt-75" value="Comment Award" style="shape=ext;margin=3;double=1;whiteSpace=wrap;html=1;align=center;" vertex="1" parent="1">
          <mxGeometry x="485" y="708" width="100" height="40" as="geometry" />
        </mxCell>
        <mxCell id="3T2Dmv6GAxnCzhkbNNIt-76" style="edgeStyle=orthogonalEdgeStyle;rounded=0;orthogonalLoop=1;jettySize=auto;html=1;exitX=1;exitY=0.5;exitDx=0;exitDy=0;entryX=0;entryY=0.5;entryDx=0;entryDy=0;endArrow=none;endFill=0;" edge="1" parent="1" source="3T2Dmv6GAxnCzhkbNNIt-78" target="3T2Dmv6GAxnCzhkbNNIt-18">
          <mxGeometry relative="1" as="geometry" />
        </mxCell>
        <mxCell id="3T2Dmv6GAxnCzhkbNNIt-77" value="1" style="edgeLabel;html=1;align=center;verticalAlign=middle;resizable=0;points=[];" connectable="0" vertex="1" parent="3T2Dmv6GAxnCzhkbNNIt-76">
          <mxGeometry x="0.3948" y="-2" relative="1" as="geometry">
            <mxPoint x="2" y="6" as="offset" />
          </mxGeometry>
        </mxCell>
        <mxCell id="3T2Dmv6GAxnCzhkbNNIt-78" value="has" style="shape=rhombus;perimeter=rhombusPerimeter;whiteSpace=wrap;html=1;align=center;" vertex="1" parent="1">
          <mxGeometry x="635" y="748" width="120" height="60" as="geometry" />
        </mxCell>
        <mxCell id="3T2Dmv6GAxnCzhkbNNIt-79" value="&lt;font style=&quot;font-size: 10px;&quot;&gt;type&lt;/font&gt;" style="ellipse;whiteSpace=wrap;html=1;align=center;" vertex="1" parent="1">
          <mxGeometry x="495" y="660" width="80" height="30" as="geometry" />
        </mxCell>
        <mxCell id="3T2Dmv6GAxnCzhkbNNIt-80" value="" style="endArrow=none;html=1;rounded=0;exitX=0.5;exitY=0;exitDx=0;exitDy=0;entryX=0.5;entryY=1;entryDx=0;entryDy=0;" edge="1" parent="1" source="3T2Dmv6GAxnCzhkbNNIt-75" target="3T2Dmv6GAxnCzhkbNNIt-79">
          <mxGeometry relative="1" as="geometry">
            <mxPoint x="415" y="620" as="sourcePoint" />
            <mxPoint x="575" y="620" as="targetPoint" />
          </mxGeometry>
        </mxCell>
        <mxCell id="3T2Dmv6GAxnCzhkbNNIt-81" value="&lt;font style=&quot;font-size: 10px;&quot;&gt;type&lt;/font&gt;" style="ellipse;whiteSpace=wrap;html=1;align=center;" vertex="1" parent="1">
          <mxGeometry x="495" y="870" width="80" height="30" as="geometry" />
        </mxCell>
        <mxCell id="3T2Dmv6GAxnCzhkbNNIt-82" value="" style="endArrow=none;html=1;rounded=0;exitX=0.5;exitY=1;exitDx=0;exitDy=0;entryX=0.5;entryY=0;entryDx=0;entryDy=0;" edge="1" parent="1" source="3T2Dmv6GAxnCzhkbNNIt-69" target="3T2Dmv6GAxnCzhkbNNIt-81">
          <mxGeometry relative="1" as="geometry">
            <mxPoint x="405" y="760" as="sourcePoint" />
            <mxPoint x="565" y="760" as="targetPoint" />
          </mxGeometry>
        </mxCell>
        <mxCell id="3T2Dmv6GAxnCzhkbNNIt-83" style="edgeStyle=orthogonalEdgeStyle;rounded=0;orthogonalLoop=1;jettySize=auto;html=1;exitX=1;exitY=0.5;exitDx=0;exitDy=0;entryX=0;entryY=0.5;entryDx=0;entryDy=0;endArrow=none;endFill=0;" edge="1" parent="1" source="3T2Dmv6GAxnCzhkbNNIt-85" target="3T2Dmv6GAxnCzhkbNNIt-15">
          <mxGeometry relative="1" as="geometry" />
        </mxCell>
        <mxCell id="3T2Dmv6GAxnCzhkbNNIt-84" value="1" style="edgeLabel;html=1;align=center;verticalAlign=middle;resizable=0;points=[];" connectable="0" vertex="1" parent="3T2Dmv6GAxnCzhkbNNIt-83">
          <mxGeometry x="-0.4672" y="2" relative="1" as="geometry">
            <mxPoint x="20" y="-13" as="offset" />
          </mxGeometry>
        </mxCell>
        <mxCell id="3T2Dmv6GAxnCzhkbNNIt-85" value="has" style="shape=rhombus;perimeter=rhombusPerimeter;whiteSpace=wrap;html=1;align=center;" vertex="1" parent="1">
          <mxGeometry x="635" y="416" width="120" height="60" as="geometry" />
        </mxCell>
        <mxCell id="3T2Dmv6GAxnCzhkbNNIt-86" value="&lt;font style=&quot;font-size: 10px;&quot;&gt;type&lt;/font&gt;" style="ellipse;whiteSpace=wrap;html=1;align=center;" vertex="1" parent="1">
          <mxGeometry x="495" y="310" width="80" height="30" as="geometry" />
        </mxCell>
        <mxCell id="3T2Dmv6GAxnCzhkbNNIt-87" value="" style="endArrow=none;html=1;rounded=0;exitX=0.5;exitY=1;exitDx=0;exitDy=0;entryX=0.5;entryY=0;entryDx=0;entryDy=0;" edge="1" parent="1" source="3T2Dmv6GAxnCzhkbNNIt-86" target="3T2Dmv6GAxnCzhkbNNIt-72">
          <mxGeometry relative="1" as="geometry">
            <mxPoint x="435" y="510" as="sourcePoint" />
            <mxPoint x="595" y="510" as="targetPoint" />
          </mxGeometry>
        </mxCell>
        <mxCell id="3T2Dmv6GAxnCzhkbNNIt-88" value="&lt;font style=&quot;font-size: 10px;&quot;&gt;type&lt;/font&gt;" style="ellipse;whiteSpace=wrap;html=1;align=center;" vertex="1" parent="1">
          <mxGeometry x="495" y="560" width="80" height="30" as="geometry" />
        </mxCell>
        <mxCell id="3T2Dmv6GAxnCzhkbNNIt-89" value="" style="endArrow=none;html=1;rounded=0;exitX=0.5;exitY=0;exitDx=0;exitDy=0;entryX=0.5;entryY=1;entryDx=0;entryDy=0;" edge="1" parent="1" source="3T2Dmv6GAxnCzhkbNNIt-88" target="3T2Dmv6GAxnCzhkbNNIt-66">
          <mxGeometry relative="1" as="geometry">
            <mxPoint x="435" y="510" as="sourcePoint" />
            <mxPoint x="595" y="510" as="targetPoint" />
          </mxGeometry>
        </mxCell>
        <mxCell id="3T2Dmv6GAxnCzhkbNNIt-90" value="&lt;font style=&quot;font-size: 10px;&quot;&gt;text&lt;/font&gt;" style="ellipse;whiteSpace=wrap;html=1;align=center;" vertex="1" parent="1">
          <mxGeometry x="855" y="830" width="80" height="30" as="geometry" />
        </mxCell>
        <mxCell id="3T2Dmv6GAxnCzhkbNNIt-91" value="" style="endArrow=none;html=1;rounded=0;exitX=0.25;exitY=1;exitDx=0;exitDy=0;entryX=0.5;entryY=0;entryDx=0;entryDy=0;" edge="1" parent="1" source="3T2Dmv6GAxnCzhkbNNIt-18" target="3T2Dmv6GAxnCzhkbNNIt-97">
          <mxGeometry relative="1" as="geometry">
            <mxPoint x="505" y="820" as="sourcePoint" />
            <mxPoint x="795" y="830" as="targetPoint" />
          </mxGeometry>
        </mxCell>
        <mxCell id="3T2Dmv6GAxnCzhkbNNIt-92" value="" style="endArrow=none;html=1;rounded=0;exitX=0.5;exitY=0;exitDx=0;exitDy=0;entryX=0.75;entryY=1;entryDx=0;entryDy=0;" edge="1" parent="1" source="3T2Dmv6GAxnCzhkbNNIt-90" target="3T2Dmv6GAxnCzhkbNNIt-18">
          <mxGeometry relative="1" as="geometry">
            <mxPoint x="505" y="820" as="sourcePoint" />
            <mxPoint x="665" y="820" as="targetPoint" />
          </mxGeometry>
        </mxCell>
        <mxCell id="3T2Dmv6GAxnCzhkbNNIt-93" value="" style="endArrow=none;html=1;rounded=0;exitX=1;exitY=0.5;exitDx=0;exitDy=0;entryX=0;entryY=0.5;entryDx=0;entryDy=0;" edge="1" parent="1" source="3T2Dmv6GAxnCzhkbNNIt-15" target="3T2Dmv6GAxnCzhkbNNIt-32">
          <mxGeometry relative="1" as="geometry">
            <mxPoint x="765" y="510" as="sourcePoint" />
            <mxPoint x="925" y="510" as="targetPoint" />
          </mxGeometry>
        </mxCell>
        <mxCell id="3T2Dmv6GAxnCzhkbNNIt-94" style="edgeStyle=orthogonalEdgeStyle;rounded=0;orthogonalLoop=1;jettySize=auto;html=1;exitX=1;exitY=0.5;exitDx=0;exitDy=0;entryX=0.75;entryY=0;entryDx=0;entryDy=0;endArrow=none;endFill=0;" edge="1" parent="1" source="3T2Dmv6GAxnCzhkbNNIt-18" target="3T2Dmv6GAxnCzhkbNNIt-18">
          <mxGeometry relative="1" as="geometry">
            <Array as="points">
              <mxPoint x="945" y="778" />
              <mxPoint x="945" y="730" />
              <mxPoint x="870" y="730" />
            </Array>
          </mxGeometry>
        </mxCell>
        <mxCell id="3T2Dmv6GAxnCzhkbNNIt-95" value="1" style="edgeLabel;html=1;align=center;verticalAlign=middle;resizable=0;points=[];" connectable="0" vertex="1" parent="3T2Dmv6GAxnCzhkbNNIt-94">
          <mxGeometry x="-0.6128" y="-1" relative="1" as="geometry">
            <mxPoint x="-29" y="7" as="offset" />
          </mxGeometry>
        </mxCell>
        <mxCell id="3T2Dmv6GAxnCzhkbNNIt-96" value="лю" style="edgeLabel;html=1;align=center;verticalAlign=middle;resizable=0;points=[];" connectable="0" vertex="1" parent="3T2Dmv6GAxnCzhkbNNIt-94">
          <mxGeometry x="0.4903" y="3" relative="1" as="geometry">
            <mxPoint x="-8" y="17" as="offset" />
          </mxGeometry>
        </mxCell>
        <mxCell id="3T2Dmv6GAxnCzhkbNNIt-97" value="&lt;span style=&quot;border-bottom: 1px dotted; font-size: 10px;&quot;&gt;parent&lt;/span&gt;" style="ellipse;whiteSpace=wrap;html=1;align=center;fontSize=10;" vertex="1" parent="1">
          <mxGeometry x="755" y="830" width="80" height="30" as="geometry" />
        </mxCell>
        <mxCell id="3T2Dmv6GAxnCzhkbNNIt-98" value="&lt;font style=&quot;font-size: 10px;&quot;&gt;karma&lt;/font&gt;" style="ellipse;whiteSpace=wrap;html=1;align=center;dashed=1;" vertex="1" parent="1">
          <mxGeometry x="-115" y="520" width="80" height="30" as="geometry" />
        </mxCell>
        <mxCell id="3T2Dmv6GAxnCzhkbNNIt-99" value="Country" style="whiteSpace=wrap;html=1;align=center;" vertex="1" parent="1">
          <mxGeometry x="-135" y="798" width="100" height="40" as="geometry" />
        </mxCell>
        <mxCell id="3T2Dmv6GAxnCzhkbNNIt-100" style="edgeStyle=orthogonalEdgeStyle;rounded=0;orthogonalLoop=1;jettySize=auto;html=1;exitX=0.5;exitY=0;exitDx=0;exitDy=0;entryX=0.5;entryY=1;entryDx=0;entryDy=0;endArrow=none;endFill=0;" edge="1" parent="1" source="3T2Dmv6GAxnCzhkbNNIt-104" target="3T2Dmv6GAxnCzhkbNNIt-11">
          <mxGeometry relative="1" as="geometry" />
        </mxCell>
        <mxCell id="3T2Dmv6GAxnCzhkbNNIt-101" value="M" style="edgeLabel;html=1;align=center;verticalAlign=middle;resizable=0;points=[];" connectable="0" vertex="1" parent="3T2Dmv6GAxnCzhkbNNIt-100">
          <mxGeometry x="-0.0878" relative="1" as="geometry">
            <mxPoint x="10" y="-9" as="offset" />
          </mxGeometry>
        </mxCell>
        <mxCell id="3T2Dmv6GAxnCzhkbNNIt-102" style="edgeStyle=orthogonalEdgeStyle;rounded=0;orthogonalLoop=1;jettySize=auto;html=1;exitX=0.5;exitY=1;exitDx=0;exitDy=0;entryX=0.5;entryY=0;entryDx=0;entryDy=0;endArrow=none;endFill=0;" edge="1" parent="1" source="3T2Dmv6GAxnCzhkbNNIt-104" target="3T2Dmv6GAxnCzhkbNNIt-99">
          <mxGeometry relative="1" as="geometry" />
        </mxCell>
        <mxCell id="3T2Dmv6GAxnCzhkbNNIt-103" value="1" style="edgeLabel;html=1;align=center;verticalAlign=middle;resizable=0;points=[];" connectable="0" vertex="1" parent="3T2Dmv6GAxnCzhkbNNIt-102">
          <mxGeometry x="0.5776" y="2" relative="1" as="geometry">
            <mxPoint x="8" y="-2" as="offset" />
          </mxGeometry>
        </mxCell>
        <mxCell id="3T2Dmv6GAxnCzhkbNNIt-104" value="has" style="shape=rhombus;perimeter=rhombusPerimeter;whiteSpace=wrap;html=1;align=center;" vertex="1" parent="1">
          <mxGeometry x="-145" y="690" width="120" height="60" as="geometry" />
        </mxCell>
        <mxCell id="3T2Dmv6GAxnCzhkbNNIt-105" value="&lt;font style=&quot;font-size: 10px;&quot;&gt;is_admin&lt;/font&gt;" style="ellipse;whiteSpace=wrap;html=1;align=center;" vertex="1" parent="1">
          <mxGeometry x="-55" y="560" width="80" height="30" as="geometry" />
        </mxCell>
        <mxCell id="3T2Dmv6GAxnCzhkbNNIt-106" value="" style="endArrow=none;html=1;rounded=0;entryX=0.75;entryY=0;entryDx=0;entryDy=0;exitX=0;exitY=1;exitDx=0;exitDy=0;" edge="1" parent="1" source="3T2Dmv6GAxnCzhkbNNIt-105" target="3T2Dmv6GAxnCzhkbNNIt-11">
          <mxGeometry relative="1" as="geometry">
            <mxPoint x="-5" y="606" as="sourcePoint" />
            <mxPoint x="145" y="640" as="targetPoint" />
          </mxGeometry>
        </mxCell>
        <mxCell id="3T2Dmv6GAxnCzhkbNNIt-107" value="&lt;font style=&quot;font-size: 10px;&quot;&gt;name&lt;/font&gt;" style="ellipse;whiteSpace=wrap;html=1;align=center;" vertex="1" parent="1">
          <mxGeometry x="-185" y="870" width="80" height="30" as="geometry" />
        </mxCell>
        <mxCell id="3T2Dmv6GAxnCzhkbNNIt-108" value="&lt;font style=&quot;font-size: 10px;&quot;&gt;iso&lt;/font&gt;" style="ellipse;whiteSpace=wrap;html=1;align=center;fontStyle=4;" vertex="1" parent="1">
          <mxGeometry x="-65" y="873" width="80" height="30" as="geometry" />
        </mxCell>
        <mxCell id="3T2Dmv6GAxnCzhkbNNIt-109" value="" style="endArrow=none;html=1;rounded=0;exitX=0.25;exitY=1;exitDx=0;exitDy=0;entryX=0.5;entryY=0;entryDx=0;entryDy=0;" edge="1" parent="1" source="3T2Dmv6GAxnCzhkbNNIt-99" target="3T2Dmv6GAxnCzhkbNNIt-107">
          <mxGeometry relative="1" as="geometry">
            <mxPoint x="-95" y="690" as="sourcePoint" />
            <mxPoint x="65" y="690" as="targetPoint" />
          </mxGeometry>
        </mxCell>
        <mxCell id="3T2Dmv6GAxnCzhkbNNIt-110" value="" style="endArrow=none;html=1;rounded=0;exitX=0.5;exitY=0;exitDx=0;exitDy=0;entryX=0.75;entryY=1;entryDx=0;entryDy=0;" edge="1" parent="1" source="3T2Dmv6GAxnCzhkbNNIt-108" target="3T2Dmv6GAxnCzhkbNNIt-99">
          <mxGeometry relative="1" as="geometry">
            <mxPoint x="-95" y="690" as="sourcePoint" />
            <mxPoint x="-5" y="850" as="targetPoint" />
          </mxGeometry>
        </mxCell>
      </root>
    </mxGraphModel>
  </diagram>
</mxfile>
